# xmcd CD database file
#
# Track frame offsets:
#	150
#	18930
#	34332
#	49540
#	58648
#	73516
#	85488
#	99820
#	114739
#	127346
#	137325
#	158872
#	173026
#	184457
#	203498
#	216806
#
# Disc length: 3042 seconds
#
# Revision: 0
# Processed by: cddbd v1.5.2PL0 Copyright (c) Steve Scherf et al.
# Submitted via: CDex 1.70beta2
#
DISCID=de0be010
DTITLE=Smes - 16 nej od taborovych ohnu
DYEAR=2008
DGENRE=Country
TTITLE0=Osamely mesto
TTITLE1=Franky dlouhan
TTITLE2=Jizni Eskadrona
TTITLE3=Rovnou tady rovnou
TTITLE4=Severni vitr
TTITLE5=Bedna od whisky
TTITLE6=Tisic mil
TTITLE7=Blaznova ukolebavka
TTITLE8=Ruty suty Arizona Texas
TTITLE9=Buraky
TTITLE10=Zatoka
TTITLE11=Tri krize
TTITLE12=Panenka
TTITLE13=Zelene plane
TTITLE14=Rosa na kolejich
TTITLE15=Rodne udoli
EXTD=YEAR: 2008
EXTT0=
EXTT1=
EXTT2=
EXTT3=
EXTT4=
EXTT5=
EXTT6=
EXTT7=
EXTT8=
EXTT9=
EXTT10=
EXTT11=
EXTT12=
EXTT13=
EXTT14=
EXTT15=
PLAYORDER=
